<svg xmlns="http://www.w3.org/2000/svg"  viewBox="0 0 100 100" width="200px" height="200px" baseProfile="basic"><polyline fill="#f16e7c" points="49.875,90 49.875,36.5 11,22.125 11,72.875 49.875,90"/><polygon fill="#f59173" points="11,22 49.625,10.125 88,23 49.875,37.125"/><g><polygon fill="#ee4267" points="49.875,90 49.875,36.5 88.375,22.625 87.75,73.375"/><path fill="#e3e2e3" d="M34.857,50.51C34.857,50.51,35,42,29,42c-3.527,0-3,3.99-3,5c0,3.031,4.937,6.805,6.913,8.31 c2.521,1.92,6.319,4.673,6.076,11.115c-0.291,7.703-5.211,7.607-7.778,7.073c-4.861-1.01-10.451-7.073-10.087-14.652 c2.674,1.01,4.375,1.768,4.375,1.768s-0.122,7.831,5.712,8.842s4.861-7.073-0.608-10.736c-4.516-3.024-9.114-7.452-9.114-12.504 c0-8.084,6.409-8.57,8.75-8.084c4.861,1.01,8.75,4.547,8.75,13.894C37.044,51.52,34.857,50.51,34.857,50.51z"/><polygon fill="#e3e2e3" points="82.57,34.77 78.16,67.53 73.42,69.43 69.5,48.25 65.76,72.5 60.93,74.43 55.87,45.45 60.19,43.72 63.75,66.5 67.73,40.71 71.37,39.25 75.5,61.25 78.68,36.33"/><path fill="#1f212b" d="M88.871,22.291c0-0.019,0-0.037-0.001-0.056c-0.023-0.413-0.297-0.769-0.69-0.896L50.309,9.049 c-0.197-0.063-0.412-0.065-0.61-0.002l-38.72,12.255c-0.147,0.022-0.29,0.077-0.416,0.164c-0.272,0.187-0.434,0.495-0.434,0.824 v50.527c0,0.396,0.233,0.755,0.596,0.915l38.871,17.183C49.725,90.972,49.862,91,50,91c0.139,0,0.277-0.028,0.406-0.086 c1.471-0.654,36.043-16.021,38.041-17.02c0.339-0.17,0.554-0.518,0.553-0.897L88.871,22.291z M50.5,88.682V80.75 c0-0.276-0.224-0.5-0.5-0.5s-0.5,0.224-0.5,0.5v7.935L12.129,72.166v-48.9l4.823,1.785c0.057,0.021,0.116,0.031,0.173,0.031 c0.203,0,0.394-0.125,0.469-0.326c0.096-0.259-0.036-0.547-0.295-0.643l-3.952-1.463l36.65-11.601l36.276,11.773l-3.445,1.272 c-0.259,0.096-0.392,0.383-0.296,0.642c0.075,0.202,0.266,0.327,0.469,0.327c0.058,0,0.116-0.01,0.173-0.031l3.701-1.367 l0.124,48.703C82.519,74.442,55.759,86.345,50.5,88.682z"/><path fill="#1f212b" d="M34.127,31.375c0.203,0,0.394-0.125,0.469-0.326c0.096-0.259-0.036-0.547-0.295-0.643 l-13.846-5.125c-0.257-0.098-0.546,0.037-0.642,0.295c-0.096,0.259,0.036,0.547,0.295,0.643l13.846,5.125 C34.011,31.365,34.069,31.375,34.127,31.375z"/><path fill="#1f212b" d="M78.298,26.833c0.259-0.096,0.392-0.383,0.296-0.642s-0.383-0.395-0.643-0.296L50,36.217 l-13.702-5.072c-0.258-0.098-0.546,0.036-0.642,0.295s0.036,0.547,0.295,0.643L49.5,37.098V75.5c0,0.276,0.224,0.5,0.5,0.5 s0.5-0.224,0.5-0.5V37.098L78.298,26.833z"/><path fill="#1f212b" d="M82.384,34.306l-3.89,1.561c-0.168,0.067-0.287,0.221-0.31,0.4l-2.778,21.771l-3.544-18.88 c-0.027-0.147-0.12-0.274-0.25-0.347c-0.131-0.071-0.289-0.081-0.427-0.025l-3.64,1.46c-0.164,0.065-0.281,0.213-0.308,0.388 l-3.489,22.608l-3.063-19.6c-0.023-0.15-0.114-0.282-0.247-0.357s-0.292-0.088-0.433-0.029l-4.32,1.73 c-0.219,0.088-0.347,0.317-0.307,0.55l5.06,28.979c0.026,0.148,0.118,0.277,0.249,0.351c0.076,0.042,0.159,0.063,0.244,0.063 c0.063,0,0.126-0.012,0.186-0.036l4.83-1.93c0.164-0.065,0.282-0.213,0.309-0.388l3.291-21.337l3.383,18.281 c0.027,0.147,0.119,0.274,0.25,0.348c0.13,0.071,0.288,0.082,0.427,0.025l4.74-1.899c0.167-0.066,0.286-0.219,0.31-0.397 l4.41-32.761c0.023-0.176-0.048-0.352-0.188-0.461C82.736,34.267,82.549,34.239,82.384,34.306z M77.704,67.175L73.8,68.738 l-3.809-20.579c-0.044-0.239-0.257-0.407-0.499-0.409c-0.244,0.004-0.45,0.183-0.487,0.424l-3.697,23.968l-3.992,1.595 l-4.884-27.973l3.36-1.347l3.463,22.16C63.294,66.82,63.503,67,63.75,67h0c0.247,0,0.456-0.18,0.494-0.424l3.937-25.508 l2.811-1.128l4.018,21.401c0.045,0.242,0.266,0.409,0.506,0.408c0.246-0.008,0.45-0.192,0.481-0.437l3.143-24.629l2.821-1.132 L77.704,67.175z"/><path fill="#1f212b" d="M29.5,38c-2.325,0-8.5,0-8.5,8.5c0,5.271,5.304,9.429,9.566,12.769 c2.916,2.285,4.866,6.595,3.938,8.701c-0.415,0.941-1.396,1.293-2.922,1.037c-5.5-0.917-5.461-7.95-5.457-8.249 c0.003-0.203-0.117-0.388-0.303-0.468c-0.018-0.007-1.794-0.767-4.526-1.76c-0.149-0.054-0.314-0.034-0.447,0.053 c-0.132,0.088-0.215,0.233-0.223,0.392c-0.375,7.504,5.378,13.937,10.776,15.016c0.691,0.139,1.513,0.267,2.37,0.267 c1.208,0,2.482-0.255,3.554-1.099c1.492-1.175,2.308-3.282,2.424-6.264c0.244-6.211-3-9.449-6.204-11.798 C30.065,52.545,26,48.763,26,46.5c0-0.408,0.072-1.808,1.002-2.706c0.583-0.564,1.401-0.847,2.48-0.794 c4.847,0.167,5.264,7.697,5.268,7.773c0.009,0.188,0.124,0.356,0.296,0.434c0.094,0.041,2.313,1.023,4.332,1.528 c0.15,0.037,0.308,0.005,0.429-0.091C39.929,52.55,40,52.404,40,52.25C40,42.459,34.557,38,29.5,38z M35.728,50.411 c-0.134-1.565-1.011-8.231-6.21-8.411c-1.341-0.029-2.424,0.315-3.209,1.074C25.094,44.246,25,45.993,25,46.5 c0,3.225,5.563,7.65,7.955,9.403c2.992,2.193,6.021,5.209,5.796,10.952c-0.105,2.676-0.792,4.531-2.044,5.517 c-1.489,1.174-3.512,0.958-5.108,0.638c-4.834-0.967-9.975-6.602-9.99-13.3c1.726,0.639,2.983,1.151,3.525,1.376 c0.067,1.565,0.688,7.975,6.285,8.907c2.667,0.443,3.651-0.824,4.001-1.62c1.126-2.557-0.893-7.271-4.236-9.892 C26.879,55.108,22,51.285,22,46.5c0-7.5,5.065-7.5,7.5-7.5c4.464,0,9.26,3.947,9.491,12.594 C37.645,51.201,36.292,50.65,35.728,50.411z"/></g></svg>